<svg xmlns="http://www.w3.org/2000/svg" width="37" height="36" viewBox="0 0 37 36" fill="none">
<circle cx="18.5" cy="18" r="18" fill="#6781BC"/>
<g clip-path="url(#clip0)">
<path d="M26.9506 21.2729C26.8317 21.1498 26.6496 21.1117 26.4913 21.1769C21.9657 23.0503 16.7783 20.9004 14.9048 16.3747C13.9534 14.0766 14.0109 11.4845 15.063 9.23081C15.1616 9.02235 15.0725 8.77344 14.8641 8.67485C14.7571 8.62422 14.6336 8.62145 14.5244 8.66712C9.56282 10.7052 7.19286 16.3796 9.23097 21.3412C11.2691 26.3028 16.9435 28.6727 21.9051 26.6346C24.168 25.705 25.9967 23.9558 27.0258 21.7363C27.0982 21.5811 27.0684 21.3973 26.9506 21.2729ZM18.2197 26.534C13.3147 26.5332 9.33912 22.5562 9.33995 17.6513C9.34047 14.4305 11.0847 11.4625 13.8981 9.89471C13.5649 10.8836 13.3957 11.9202 13.397 12.9637C13.3973 18.3299 17.7477 22.6798 23.1138 22.6796C24.0132 22.6795 24.9081 22.5546 25.7731 22.3084C24.1538 24.9267 21.2982 26.5242 18.2197 26.534Z" fill="white"/>
<path fill-rule="evenodd" clip-rule="evenodd" d="M19.4107 14.6109C19.4461 14.717 19.5962 14.717 19.6316 14.6109L19.7845 14.1521C19.7845 14.1522 19.7846 14.1519 19.7845 14.1521C19.9807 13.5639 20.3926 13.0749 20.9323 12.7812C20.9365 12.779 20.9406 12.7767 20.9448 12.7745C20.9448 12.7745 20.9448 12.7745 20.9448 12.7745C20.9537 12.7697 20.9626 12.765 20.9716 12.7603C21.0257 12.7322 21.081 12.706 21.1374 12.6818L21.3038 12.6104C21.3979 12.5701 21.3979 12.4368 21.3038 12.3965L21.1915 12.3483L21.1374 12.3252C21.081 12.301 21.0257 12.2747 20.9716 12.2466C20.9627 12.2419 20.9538 12.2372 20.9449 12.2325C20.9449 12.2325 20.9449 12.2325 20.9449 12.2325C20.9407 12.2302 20.9365 12.2279 20.9323 12.2257C20.3926 11.932 19.9809 11.4435 19.7847 10.8553C19.7847 10.8554 19.7846 10.8551 19.7847 10.8553L19.6316 10.396C19.5962 10.2899 19.4461 10.2899 19.4107 10.396L19.2578 10.8548C19.2578 10.8547 19.2577 10.855 19.2578 10.8548C19.0616 11.443 18.6497 11.932 18.11 12.2257C18.1058 12.228 18.1017 12.2302 18.0975 12.2324C18.0975 12.2324 18.0975 12.2324 18.0975 12.2324C18.0886 12.2372 18.0797 12.2419 18.0707 12.2466C18.0167 12.2747 17.9613 12.301 17.9049 12.3252L17.7385 12.3965C17.6445 12.4368 17.6445 12.5701 17.7385 12.6104L17.9049 12.6818C17.9613 12.706 18.0166 12.7322 18.0707 12.7603C18.0797 12.765 18.0886 12.7697 18.0974 12.7745C18.0974 12.7744 18.0975 12.7745 18.0974 12.7745C18.1016 12.7767 18.1058 12.779 18.11 12.7812C18.6497 13.0749 19.0614 13.5635 19.2576 14.1516C19.2576 14.1515 19.2577 14.1518 19.2576 14.1516L19.3831 14.5281L19.4107 14.6109ZM19.5212 13.5106C19.7416 13.1084 20.0533 12.7634 20.4306 12.5035C20.0533 12.2435 19.7416 11.8985 19.5212 11.4963C19.3007 11.8985 18.989 12.2435 18.6117 12.5035C18.989 12.7635 19.3007 13.1084 19.5212 13.5106Z" fill="white"/>
<path fill-rule="evenodd" clip-rule="evenodd" d="M25.9716 10.7632C26.0257 10.7913 26.081 10.8176 26.1374 10.8418L26.1915 10.8649L26.3038 10.9131C26.3979 10.9534 26.3979 11.0867 26.3038 11.127L26.1915 11.1752L26.1374 11.1984C26.081 11.2226 26.0257 11.2488 25.9716 11.2769C25.9627 11.2816 25.9537 11.2863 25.9449 11.2911C25.9448 11.2911 25.9449 11.2911 25.9449 11.2911C25.9407 11.2933 25.9365 11.2956 25.9323 11.2978C25.3926 11.5915 24.9809 12.0801 24.7847 12.6682C24.7846 12.6684 24.7847 12.6681 24.7847 12.6682L24.6592 13.0447L24.6316 13.1275C24.5962 13.2336 24.4461 13.2336 24.4107 13.1275L24.3831 13.0447L24.2578 12.6687C24.2577 12.6685 24.2578 12.6688 24.2578 12.6687C24.0616 12.0805 23.6497 11.5915 23.11 11.2978C23.1058 11.2956 23.1017 11.2933 23.0975 11.2911C23.0975 11.2911 23.0975 11.2911 23.0975 11.2911C23.0886 11.2863 23.0797 11.2816 23.0707 11.2769C23.0166 11.2488 22.9613 11.2226 22.9049 11.1984L22.8509 11.1752L22.7385 11.127C22.6445 11.0867 22.6445 10.9534 22.7385 10.9131L22.9049 10.8418C22.9613 10.8176 23.0167 10.7913 23.0707 10.7632C23.0797 10.7585 23.0886 10.7538 23.0975 10.7491C23.0975 10.7491 23.0974 10.7491 23.0975 10.7491C23.1016 10.7468 23.1058 10.7446 23.11 10.7423C23.6497 10.4486 24.0614 9.96006 24.2576 9.37189C24.2577 9.37174 24.2576 9.37204 24.2576 9.37189L24.4107 8.91258C24.4461 8.80648 24.5962 8.80648 24.6316 8.91258L24.7845 9.37145C24.7846 9.37159 24.7845 9.3713 24.7845 9.37145C24.9807 9.95962 25.3926 10.4486 25.9323 10.7423C25.9365 10.7445 25.9407 10.7468 25.9448 10.749C25.9448 10.749 25.9448 10.749 25.9448 10.749C25.9537 10.7538 25.9627 10.7585 25.9716 10.7632ZM25.4306 11.0201C25.0533 11.28 24.7416 11.625 24.5212 12.0272C24.3007 11.625 23.989 11.2801 23.6117 11.0201C23.989 10.7601 24.3007 10.4151 24.5212 10.0129C24.7416 10.4151 25.0533 10.7601 25.4306 11.0201Z" fill="white"/>
<path fill-rule="evenodd" clip-rule="evenodd" d="M25.1357 16.5972C25.1897 16.6253 25.245 16.6516 25.3015 16.6757L25.4679 16.7471C25.562 16.7874 25.562 16.9207 25.4679 16.961L25.3556 17.0092L25.3015 17.0323C25.245 17.0565 25.1897 17.0828 25.1357 17.1109C25.1267 17.1156 25.1178 17.1203 25.1089 17.125C25.1089 17.1251 25.1089 17.125 25.1089 17.125C25.1047 17.1273 25.1005 17.1296 25.0964 17.1318C24.5567 17.4255 24.1449 17.914 23.9487 18.5022C23.9487 18.5024 23.9488 18.5021 23.9487 18.5022L23.8232 18.8787L23.7956 18.9615C23.7602 19.0676 23.6102 19.0676 23.5748 18.9615L23.5472 18.8787L23.4218 18.5027C23.4218 18.5025 23.4219 18.5028 23.4218 18.5027C23.2257 17.9145 22.8138 17.4255 22.274 17.1318C22.2699 17.1296 22.2657 17.1273 22.2616 17.1251C22.2615 17.1251 22.2616 17.1251 22.2616 17.1251C22.2527 17.1203 22.2437 17.1156 22.2348 17.1109C22.1807 17.0828 22.1254 17.0565 22.069 17.0323L21.9025 16.961C21.8085 16.9207 21.8085 16.7874 21.9025 16.7471L22.069 16.6757C22.1254 16.6516 22.1807 16.6253 22.2348 16.5972C22.2437 16.5925 22.2526 16.5878 22.2615 16.583C22.2615 16.583 22.2615 16.583 22.2615 16.583C22.2657 16.5808 22.2699 16.5785 22.274 16.5763C22.8138 16.2826 23.2255 15.794 23.4217 15.2059C23.4217 15.2057 23.4216 15.206 23.4217 15.2059L23.5748 14.7466C23.6102 14.6405 23.7603 14.6405 23.7956 14.7466L23.9486 15.2054C23.9486 15.2056 23.9485 15.2053 23.9486 15.2054C24.1448 15.7936 24.5567 16.2826 25.0964 16.5763C25.1006 16.5785 25.1047 16.5808 25.1089 16.583C25.1089 16.583 25.1089 16.583 25.1089 16.583C25.1178 16.5878 25.1267 16.5925 25.1357 16.5972ZM24.5946 16.854C24.2174 16.594 23.9057 16.2491 23.6852 15.8469C23.4647 16.2491 23.1531 16.5941 22.7758 16.8541C23.1531 17.114 23.4647 17.459 23.6852 17.8612C23.9057 17.459 24.2173 17.114 24.5946 16.854Z" fill="white"/>
</g>
<defs>
<clipPath id="clip0">
<rect width="20" height="20" fill="white" transform="translate(8.5 8)"/>
</clipPath>
</defs>
</svg>